<svg width="98" height="97" viewBox="0 0 98 97" fill="none" xmlns="http://www.w3.org/2000/svg">
<g style="mix-blend-mode:multiply">
<path d="M88.4803 8L58.4173 34.1739H3V94H95V34.1739H80.5118L88.4803 8Z" stroke="#CF4242" stroke-width="5"/>
</g>
<path d="M23.04 59.792C23.04 58.88 23.124 58.1 23.292 57.452C23.484 56.78 23.796 56.144 24.228 55.544C24.684 54.944 25.296 54.32 26.064 53.672C27 52.88 27.72 52.22 28.224 51.692C28.752 51.164 29.124 50.648 29.34 50.144C29.556 49.64 29.664 49.028 29.664 48.308C29.664 47.156 29.292 46.268 28.548 45.644C27.804 45.02 26.724 44.708 25.308 44.708C24.132 44.708 23.088 44.864 22.176 45.176C21.264 45.464 20.388 45.812 19.548 46.22L18.432 43.7C19.392 43.196 20.448 42.776 21.6 42.44C22.776 42.104 24.084 41.936 25.524 41.936C27.804 41.936 29.568 42.5 30.816 43.628C32.064 44.756 32.688 46.292 32.688 48.236C32.688 49.316 32.508 50.24 32.148 51.008C31.812 51.752 31.32 52.448 30.672 53.096C30.048 53.72 29.304 54.392 28.44 55.112C27.648 55.784 27.036 56.372 26.604 56.876C26.196 57.38 25.92 57.884 25.776 58.388C25.632 58.868 25.56 59.456 25.56 60.152V60.764H23.04V59.792ZM22.212 66.056C22.212 65.168 22.416 64.544 22.824 64.184C23.256 63.824 23.796 63.644 24.444 63.644C25.044 63.644 25.56 63.824 25.992 64.184C26.424 64.544 26.64 65.168 26.64 66.056C26.64 66.92 26.424 67.544 25.992 67.928C25.56 68.312 25.044 68.504 24.444 68.504C23.796 68.504 23.256 68.312 22.824 67.928C22.416 67.544 22.212 66.92 22.212 66.056Z" fill="#CF4242"/>
<path d="M44.54 84V82.74C44.9933 82.4067 45.5133 81.9933 46.1 81.5C46.7 81.0067 47.3 80.4667 47.9 79.88C48.5133 79.28 49.0733 78.66 49.58 78.02C50.1 77.3667 50.52 76.72 50.84 76.08C51.16 75.44 51.32 74.8267 51.32 74.24C51.32 73.88 51.24 73.5267 51.08 73.18C50.92 72.82 50.6133 72.52 50.16 72.28C49.7067 72.04 49.0467 71.92 48.18 71.92C47.38 71.92 46.68 72.0533 46.08 72.32C45.4933 72.5867 45.0267 72.84 44.68 73.08V71.5C45.1067 71.2333 45.62 71 46.22 70.8C46.8333 70.5867 47.5267 70.48 48.3 70.48C49.3933 70.48 50.2667 70.6667 50.92 71.04C51.5733 71.4133 52.04 71.8867 52.32 72.46C52.6133 73.0333 52.76 73.6267 52.76 74.24C52.76 74.84 52.6067 75.4667 52.3 76.12C52.0067 76.7733 51.6133 77.4267 51.12 78.08C50.64 78.7333 50.1067 79.3667 49.52 79.98C48.9333 80.5933 48.3467 81.1667 47.76 81.7C47.1733 82.22 46.64 82.6733 46.16 83.06L45.74 82.56H52.96V84H44.54ZM62.4611 84V80H55.9811V78.46L62.2811 70.66H63.9011V78.66H65.8011V80H63.9011V84H62.4611ZM57.5811 78.66H62.4611V72.72L57.5811 78.66ZM67.3575 85.96L74.6975 68.88H76.0175L68.6575 85.96H67.3575ZM79.4434 84L85.4234 71.64L85.5634 72.1H77.7234V70.66H86.8234V72L81.0434 84H79.4434Z" fill="#CF4242"/>
</svg>
