<svg width="89" height="98" fill="none" xmlns="http://www.w3.org/2000/svg"><path d="M41.127 93.708L15.508 76.295c-4.699-3.194-2.438-10.54 3.243-10.54a5.77 5.77 0 005.77-5.77V9a6 6 0 016-6h27.05a6 6 0 016 6v50.772a5.983 5.983 0 005.983 5.982c5.892 0 8.236 7.62 3.363 10.931L47.873 93.708a6 6 0 01-6.746 0z" stroke="#CF4242" stroke-width="5"/><path d="M43.108 53.236a28.747 28.747 0 01-3.852-.324c-1.248-.216-2.256-.504-3.024-.864v-3.06c.816.384 1.86.72 3.132 1.008a18.58 18.58 0 003.744.468v-7.272a25.505 25.505 0 01-3.096-1.08c-.864-.408-1.572-.864-2.124-1.368a5.168 5.168 0 01-1.26-1.728c-.264-.672-.396-1.44-.396-2.304 0-1.176.276-2.184.828-3.024.576-.84 1.38-1.5 2.412-1.98 1.032-.504 2.244-.792 3.636-.864v-3.168h2.304v3.132c1.272.024 2.424.168 3.456.432 1.056.24 2.016.54 2.88.9l-.972 2.664a16.88 16.88 0 00-2.556-.792 15.592 15.592 0 00-2.808-.468v7.236c1.584.456 2.904.948 3.96 1.476 1.056.504 1.848 1.14 2.376 1.908.552.744.828 1.716.828 2.916 0 1.68-.624 3.048-1.872 4.104-1.248 1.032-3.012 1.668-5.292 1.908v3.996h-2.304v-3.852zm2.304-2.952c1.416-.144 2.448-.468 3.096-.972.648-.528.972-1.2.972-2.016 0-.6-.12-1.092-.36-1.476-.24-.408-.66-.756-1.26-1.044-.576-.288-1.392-.564-2.448-.828v6.336zm-2.304-16.668c-.864.048-1.572.204-2.124.468-.552.24-.972.564-1.26.972a2.527 2.527 0 00-.396 1.404c0 .624.108 1.164.324 1.62.24.432.636.804 1.188 1.116.552.288 1.308.552 2.268.792v-6.372z" fill="#CF4242"/></svg>