<svg width="98" height="97" fill="none" xmlns="http://www.w3.org/2000/svg"><path d="M88.48 8L58.417 34.174H3V94h92V34.174H80.512L88.48 8z" stroke="#CF4242" stroke-width="5"/><path d="M23.04 59.792c0-.912.084-1.692.252-2.34a6.136 6.136 0 01.936-1.908c.456-.6 1.068-1.224 1.836-1.872.936-.792 1.656-1.452 2.16-1.98.528-.528.9-1.044 1.116-1.548.216-.504.324-1.116.324-1.836 0-1.152-.372-2.04-1.116-2.664-.744-.624-1.824-.936-3.24-.936-1.176 0-2.22.156-3.132.468-.912.288-1.788.636-2.628 1.044l-1.116-2.52c.96-.504 2.016-.924 3.168-1.26 1.176-.336 2.484-.504 3.924-.504 2.28 0 4.044.564 5.292 1.692 1.248 1.128 1.872 2.664 1.872 4.608 0 1.08-.18 2.004-.54 2.772-.336.744-.828 1.44-1.476 2.088a33.537 33.537 0 01-2.232 2.016c-.792.672-1.404 1.26-1.836 1.764-.408.504-.684 1.008-.828 1.512-.144.48-.216 1.068-.216 1.764v.612h-2.52v-.972zm-.828 6.264c0-.888.204-1.512.612-1.872.432-.36.972-.54 1.62-.54.6 0 1.116.18 1.548.54.432.36.648.984.648 1.872 0 .864-.216 1.488-.648 1.872a2.251 2.251 0 01-1.548.576c-.648 0-1.188-.192-1.62-.576-.408-.384-.612-1.008-.612-1.872zM44.54 84v-1.26c.453-.333.973-.747 1.56-1.24.6-.493 1.2-1.033 1.8-1.62a19.87 19.87 0 001.68-1.86c.52-.653.94-1.3 1.26-1.94.32-.64.48-1.253.48-1.84 0-.36-.08-.713-.24-1.06-.16-.36-.467-.66-.92-.9s-1.113-.36-1.98-.36c-.8 0-1.5.133-2.1.4-.587.267-1.053.52-1.4.76V71.5c.427-.267.94-.5 1.54-.7.613-.213 1.307-.32 2.08-.32 1.093 0 1.967.187 2.62.56.653.373 1.12.847 1.4 1.42.293.573.44 1.167.44 1.78 0 .6-.153 1.227-.46 1.88a10.203 10.203 0 01-1.18 1.96 19.17 19.17 0 01-1.6 1.9 35.283 35.283 0 01-1.76 1.72c-.587.52-1.12.973-1.6 1.36l-.42-.5h7.22V84h-8.42zm17.921 0v-4h-6.48v-1.54l6.3-7.8h1.62v8h1.9V80h-1.9v4h-1.44zm-4.88-5.34h4.88v-5.94l-4.88 5.94zm9.776 7.3l7.34-17.08h1.32l-7.36 17.08h-1.3zM79.444 84l5.98-12.36.14.46h-7.84v-1.44h9.1V72l-5.78 12h-1.6z" fill="#CF4242"/></svg>