<svg width="90" height="102" viewBox="0 0 90 102" fill="none" xmlns="http://www.w3.org/2000/svg">
<path d="M8.11696 88.8374L19.4135 69.2713L33.8684 77.6168L22.5719 97.183L18.2143 90.347L17.5152 89.2503L16.2159 89.1932L8.11696 88.8374Z" fill="white" stroke="#CF4242" stroke-width="5"/>
<path d="M69.7314 94.9133L56.1193 75.8299L69.4277 66.3371L83.0398 85.4206L75.15 86.3727L73.7958 86.5361L73.2003 87.7634L69.7314 94.9133Z" fill="white" stroke="#CF4242" stroke-width="5"/>
<path d="M81.6556 40.4941L83.223 38.5465L81.6556 40.4942C83.8941 42.2954 83.8941 45.7046 81.6556 47.5058L83.223 49.4535L81.6556 47.5059L81.3532 47.7492C78.1397 50.3351 76.962 54.6992 78.4384 58.5507L78.558 58.8627C79.5791 61.5267 77.8952 64.4564 75.0792 64.9149L74.3856 65.0278C70.3784 65.6803 67.2288 68.8071 66.5471 72.8094L66.4476 73.394C65.9754 76.1666 63.1039 77.8315 60.463 76.8637L59.5619 76.5335C55.8098 75.1585 51.5983 76.2785 49.0249 79.3358L48.4428 80.0275C46.6447 82.1637 43.3553 82.1637 41.5572 80.0275L40.9751 79.3358C38.4017 76.2785 34.1902 75.1585 30.4381 76.5335L29.537 76.8637C26.8961 77.8315 24.0246 76.1666 23.5524 73.394L23.4529 72.8094C22.7713 68.8071 19.6216 65.6803 15.6144 65.0278L14.9208 64.9149C12.1048 64.4564 10.4209 61.5267 11.442 58.8627L11.5616 58.5507C13.038 54.6992 11.8603 50.3351 8.64682 47.7492L8.34437 47.5058C6.10594 45.7046 6.10594 42.2954 8.34437 40.4942L6.82951 38.6117L8.34437 40.4942L8.64682 40.2508C11.8603 37.6649 13.038 33.3008 11.5616 29.4493L11.442 29.1373C10.4209 26.4733 12.1048 23.5436 14.9208 23.0851L15.6144 22.9722C19.6216 22.3197 22.7713 19.1929 23.4529 15.1906L23.5524 14.606C24.0246 11.8334 26.8962 10.1685 29.537 11.1363L30.4381 11.4665C34.1902 12.8415 38.4017 11.7215 40.9751 8.66418L39.0624 7.05429L40.9751 8.66418L41.5572 7.97254C43.3553 5.83626 46.6447 5.83626 48.4428 7.97254L49.0249 8.66418L50.9376 7.05429L49.0249 8.66418C51.5983 11.7215 55.8098 12.8415 59.5619 11.4665L60.463 11.1363C63.1039 10.1685 65.9754 11.8334 66.4476 14.606L66.5471 15.1906C67.2288 19.1929 70.3784 22.3197 74.3856 22.9722L75.0793 23.0851C77.8952 23.5436 79.5791 26.4733 78.558 29.1373L78.4384 29.4493C76.962 33.3008 78.1397 37.6649 81.3532 40.2508L81.6556 40.4941Z" fill="white" stroke="#CF4242" stroke-width="5"/>
<circle cx="45" cy="44" r="19.5" fill="white" stroke="#CF4242" stroke-width="5"/>
<path d="M35 45.0517L41.7568 51L55 36" stroke="#CF4242" stroke-width="5"/>
</svg>
