<svg width="89" height="98" viewBox="0 0 89 98" fill="none" xmlns="http://www.w3.org/2000/svg">
<path d="M41.1272 93.7076L15.5082 76.295C10.8094 73.1013 13.0698 65.7544 18.7512 65.7544C21.9375 65.7544 24.5204 63.1715 24.5204 59.9852V9C24.5204 5.68629 27.2067 3 30.5204 3H57.5714C60.8851 3 63.5714 5.6863 63.5714 9V59.7716C63.5714 63.0758 66.25 65.7544 69.5543 65.7544C75.4461 65.7544 77.7902 73.3734 72.9174 76.6854L47.8728 93.7076C45.8371 95.0912 43.1629 95.0912 41.1272 93.7076Z" stroke="#CF4242" stroke-width="5"/>
<path d="M43.108 53.236C41.788 53.212 40.504 53.104 39.256 52.912C38.008 52.696 37 52.408 36.232 52.048V48.988C37.048 49.372 38.092 49.708 39.364 49.996C40.636 50.284 41.884 50.44 43.108 50.464V43.192C41.932 42.856 40.9 42.496 40.012 42.112C39.148 41.704 38.44 41.248 37.888 40.744C37.336 40.24 36.916 39.664 36.628 39.016C36.364 38.344 36.232 37.576 36.232 36.712C36.232 35.536 36.508 34.528 37.06 33.688C37.636 32.848 38.44 32.188 39.472 31.708C40.504 31.204 41.716 30.916 43.108 30.844V27.676H45.412V30.808C46.684 30.832 47.836 30.976 48.868 31.24C49.924 31.48 50.884 31.78 51.748 32.14L50.776 34.804C50.008 34.492 49.156 34.228 48.22 34.012C47.308 33.772 46.372 33.616 45.412 33.544V40.78C46.996 41.236 48.316 41.728 49.372 42.256C50.428 42.76 51.22 43.396 51.748 44.164C52.3 44.908 52.576 45.88 52.576 47.08C52.576 48.76 51.952 50.128 50.704 51.184C49.456 52.216 47.692 52.852 45.412 53.092V57.088H43.108V53.236ZM45.412 50.284C46.828 50.14 47.86 49.816 48.508 49.312C49.156 48.784 49.48 48.112 49.48 47.296C49.48 46.696 49.36 46.204 49.12 45.82C48.88 45.412 48.46 45.064 47.86 44.776C47.284 44.488 46.468 44.212 45.412 43.948V50.284ZM43.108 33.616C42.244 33.664 41.536 33.82 40.984 34.084C40.432 34.324 40.012 34.648 39.724 35.056C39.46 35.464 39.328 35.932 39.328 36.46C39.328 37.084 39.436 37.624 39.652 38.08C39.892 38.512 40.288 38.884 40.84 39.196C41.392 39.484 42.148 39.748 43.108 39.988V33.616Z" fill="#CF4242"/>
</svg>
