<svg width="98" height="97" viewBox="0 0 98 97" fill="none" xmlns="http://www.w3.org/2000/svg">
<path d="M40.2273 25.1061L46.5814 31.2676C47.3573 32.02 48.5905 32.0198 49.3663 31.2673L63.6826 17.3797M16.9871 62.0212L24.3035 57.7288C25.6663 56.9418 29.511 55.6684 33.9869 56.8703C38.4627 58.0722 52.4212 61.7351 58.7333 63.5236C60.8852 63.9528 65.2777 65.998 64.4583 71.0953C63.4674 77.2594 58.7333 76.6861 56.9268 76.4608C54.4296 76.1495 47.1132 73.8255 41.3032 72.3231M64.2754 71.9988L84.8802 60.2133C85.5226 59.8458 86.2003 59.5319 86.9303 59.4097C89.026 59.059 92.2251 59.222 93.8087 61.8066C96.1758 65.6698 94.6695 68.4599 92.3024 70.8208C90.4088 72.7094 73.4377 82.1958 65.1889 86.7028C64.2564 87.0605 61.7459 87.5613 59.1637 86.7028C56.9616 85.9707 45.7352 83.7298 38.029 82.2429C35.6964 81.7928 33.2837 82.1979 31.2198 83.3742L29.8983 84.1274M31.4046 7.50708L49.6943 3.47469C51.1126 3.16198 52.5821 3.16198 54.0004 3.47468L72.2901 7.50708V30.8601C72.2901 31.6004 72.2171 32.3392 72.013 33.0509C70.3748 38.7632 64.9738 48.8374 53.8786 52.2572C52.5563 52.6648 51.1369 52.6822 49.811 52.2865C39.6322 49.2482 33.1919 39.5291 31.5912 32.8554C31.4509 32.2706 31.4046 31.6715 31.4046 31.07V7.50708ZM14.1817 60.8148L3.85336 66.8852C3.38066 67.1631 3.21983 67.7697 3.49282 68.2452L17.7857 93.142C18.0586 93.6173 18.6632 93.7844 19.1415 93.5166L29.6597 87.6272C30.1461 87.3548 30.3159 86.7373 30.0371 86.2545L15.5544 61.1768C15.2767 60.696 14.6604 60.5335 14.1817 60.8148Z" stroke="#CF4242" stroke-width="5"/>
</svg>
