<svg width="90" height="102" fill="none" xmlns="http://www.w3.org/2000/svg"><path d="M8.117 88.837l11.296-19.566 14.455 8.346-11.296 19.566-4.358-6.836-.699-1.097-1.3-.057-8.098-.356zm61.614 6.076L56.12 75.83l13.309-9.493L83.04 85.421l-7.89.952-1.354.163-.596 1.227-3.469 7.15z" fill="#fff" stroke="#CF4242" stroke-width="5"/><path d="M81.656 40.494l1.567-1.947-1.567 1.947c2.238 1.801 2.238 5.21 0 7.012l1.567 1.947-1.567-1.947-.303.243a9.5 9.5 0 00-2.915 10.802l.12.312a4.5 4.5 0 01-3.479 6.052l-.693.113a9.5 9.5 0 00-7.839 7.781l-.1.585a4.5 4.5 0 01-5.984 3.47l-.901-.33a9.5 9.5 0 00-10.537 2.802l-.582.692a4.5 4.5 0 01-6.886 0l-.582-.692a9.5 9.5 0 00-10.537-2.802l-.901.33a4.5 4.5 0 01-5.985-3.47l-.1-.585a9.5 9.5 0 00-7.838-7.781l-.693-.113a4.5 4.5 0 01-3.479-6.052l.12-.312a9.5 9.5 0 00-2.915-10.802l-.303-.243c-2.238-1.801-2.238-5.21 0-7.012L6.83 38.612l1.514 1.882.303-.243a9.5 9.5 0 002.915-10.802l-.12-.312a4.5 4.5 0 013.479-6.052l.693-.113a9.5 9.5 0 007.839-7.781l.1-.585a4.5 4.5 0 015.984-3.47l.901.33a9.5 9.5 0 0010.537-2.802l-1.913-1.61 1.913 1.61.582-.691a4.5 4.5 0 016.886 0l.582.691 1.913-1.61-1.913 1.61a9.5 9.5 0 0010.537 2.803l.901-.33a4.5 4.5 0 015.985 3.469l.1.585a9.5 9.5 0 007.838 7.781l.693.113a4.5 4.5 0 013.479 6.052l-.12.312a9.5 9.5 0 002.915 10.802l.303.243z" fill="#fff" stroke="#CF4242" stroke-width="5"/><circle cx="45" cy="44" r="19.5" fill="#fff" stroke="#CF4242" stroke-width="5"/><path d="M35 45.052L41.757 51 55 36" stroke="#CF4242" stroke-width="5"/></svg>