<svg width="98" height="97" fill="none" xmlns="http://www.w3.org/2000/svg"><path d="M40.227 25.106l6.354 6.162a2 2 0 002.785 0L63.683 17.38M16.987 62.02l7.317-4.292c1.362-.787 5.207-2.06 9.683-.859 4.476 1.202 18.434 4.865 24.746 6.654 2.152.429 6.545 2.474 5.725 7.571-.99 6.164-5.725 5.591-7.531 5.366-2.497-.311-9.814-2.635-15.624-4.138M64.275 72L84.88 60.213c.643-.367 1.32-.681 2.05-.803 2.096-.351 5.295-.188 6.879 2.397 2.367 3.863.86 6.653-1.507 9.014-1.893 1.888-18.864 11.375-27.113 15.882-.933.358-3.443.858-6.025 0-2.202-.732-13.429-2.973-21.135-4.46a9.943 9.943 0 00-6.81 1.131l-1.32.753m1.506-76.62l18.29-4.032a10 10 0 014.305 0l18.29 4.032V30.86c0 .74-.073 1.48-.277 2.19-1.638 5.713-7.04 15.787-18.134 19.207a7.017 7.017 0 01-4.068.03c-10.179-3.039-16.62-12.758-18.22-19.432a7.63 7.63 0 01-.186-1.785V7.507zM14.182 60.815l-10.329 6.07a1 1 0 00-.36 1.36l14.293 24.897a1 1 0 001.355.375l10.519-5.89a1 1 0 00.377-1.373L15.554 61.177a1 1 0 00-1.372-.362z" stroke="#CF4242" stroke-width="5"/></svg>